<?xml version="1.0" encoding="utf-8"?>
<!-- Generator: Adobe Illustrator 26.0.2, SVG Export Plug-In . SVG Version: 6.00 Build 0)  -->
<svg version="1.1" id="圖層_1" xmlns="http://www.w3.org/2000/svg" xmlns:xlink="http://www.w3.org/1999/xlink" x="0px" y="0px"
	 viewBox="0 0 28 28" style="enable-background:new 0 0 28 28;" xml:space="preserve">
<style type="text/css">
	.st0{fill:#E7FBFF;}
</style>
<path class="st0" d="M6,8.1c-0.4,0-0.7,0.3-0.7,0.7v0.9l7.2,5.9c0.9,0.7,2.1,0.7,3,0l7.2-5.9V8.8c0-0.4-0.3-0.7-0.7-0.7H6z
	 M5.3,12.3v7.1c0,0.4,0.3,0.7,0.7,0.7h16c0.4,0,0.7-0.3,0.7-0.7v-7.1l-5.9,4.8c-1.6,1.3-3.9,1.3-5.5,0L5.3,12.3z M3.3,8.8
	c0-1.5,1.2-2.7,2.7-2.7h16c1.5,0,2.7,1.2,2.7,2.7v10.6c0,1.5-1.2,2.7-2.7,2.7H6c-1.5,0-2.7-1.2-2.7-2.7V8.8z"/>
</svg>
