<?xml version="1.0" encoding="utf-8"?>
<!-- Generator: Adobe Illustrator 26.0.2, SVG Export Plug-In . SVG Version: 6.00 Build 0)  -->
<svg version="1.1" id="圖層_1" xmlns="http://www.w3.org/2000/svg" xmlns:xlink="http://www.w3.org/1999/xlink" x="0px" y="0px"
	 viewBox="0 0 28 28" style="enable-background:new 0 0 28 28;" xml:space="preserve">
<style type="text/css">
	.st0{fill:#E7FBFF;}
</style>
<path class="st0" d="M6.7,9.3C6.3,9,6.1,8.5,6.1,8s0.2-0.9,0.6-1.3C7,6.4,7.5,6.2,8.1,6.2c0.6,0,1,0.2,1.4,0.5
	c0.4,0.3,0.6,0.8,0.6,1.3c0,0.5-0.2,0.9-0.6,1.3C9.1,9.6,8.7,9.8,8.1,9.8C7.5,9.8,7,9.6,6.7,9.3z M9.8,11.3v10.5H6.4V11.3H9.8z"/>
<path class="st0" d="M20.8,12.3c0.7,0.8,1.1,1.9,1.1,3.2v6h-3.1V16c0-0.7-0.2-1.2-0.5-1.6c-0.4-0.4-0.8-0.6-1.4-0.6
	c-0.6,0-1.1,0.2-1.4,0.6c-0.4,0.4-0.5,0.9-0.5,1.6v5.6h-3.2V11.2h3.2v1.4c0.3-0.5,0.8-0.8,1.3-1.1c0.5-0.3,1.2-0.4,1.8-0.4
	C19.1,11.1,20.1,11.5,20.8,12.3L20.8,12.3z"/>
</svg>
